<?xml version="1.0" encoding="UTF-8"?>
<svg width="12px" height="12px" viewBox="0 0 12 12" version="1.1" xmlns="http://www.w3.org/2000/svg" xmlns:xlink="http://www.w3.org/1999/xlink">
    <!-- Generator: Sketch 49 (51002) - http://www.bohemiancoding.com/sketch -->
    <title>author icon</title>
    <desc>Created with Sketch.</desc>
    <defs></defs>
    <g id="Page-1" stroke="none" stroke-width="1" fill="none" fill-rule="evenodd">
        <g id="receptsida" transform="translate(-674.000000, -1051.000000)">
            <g id="Rubriker-|-Meta-|-Author-|-Shortcut-|-ingress" transform="translate(240.000000, 896.000000)">
                <g id="author" transform="translate(416.000000, 136.000000)">
                    <g id="author-icon" transform="translate(16.000000, 17.000000)">
                        <rect id="Rectangle-2" x="0" y="0" width="16" height="16"></rect>
                        <path d="M9.31786879,2.00192423 C8.96809645,2.00192423 8.61832503,2.1316579 8.35148938,2.39472965 L5.84178762,4.90291395 C5.71918679,5.01823277 5.67231041,5.18760659 5.71197546,5.34977437 C5.75524618,5.51194123 5.88145176,5.63807142 6.04371765,5.68131598 C6.20598262,5.72095613 6.37545984,5.67410809 6.49084842,5.55158231 L9.00776151,3.05060497 C9.18084439,2.87402326 9.45128662,2.87402326 9.62797516,3.05060497 L10.0210173,3.48665402 L3.07246155,10.4310094 C3.00755501,10.4958767 2.96067862,10.5787614 2.94264939,10.6652505 L2.50994219,12.8418932 L2.14935286,13.2022645 C2.02675202,13.3211877 1.97987564,13.4905615 2.0195407,13.6527293 C2.06281142,13.8148962 2.18901699,13.9410264 2.35128288,13.9842709 C2.51354785,14.0239111 2.68302507,13.977063 2.79841365,13.8581407 L3.16260865,13.4941659 L5.33335597,13.058116 C5.423504,13.0400976 5.50643885,12.9968531 5.56773973,12.9355902 L13.5980635,4.9137244 C13.6016701,4.9137244 13.6016701,4.9137244 13.6016701,4.91012092 C14.1353423,4.37677138 14.1353423,3.50106887 13.6016701,2.96411585 L13.046362,2.4091445 C12.7795264,2.14607275 12.429754,2.0127356 12.076377,2.0127356 C11.7193933,2.0127356 11.3660162,2.14607275 11.0991796,2.4091445 L10.6772903,2.83438218 L10.2878539,2.40193661 L10.277036,2.39472965 C10.013806,2.1316579 9.66403455,2.00192423 9.31786879,2.00192423 Z M12.076377,2.90645644 C12.1809476,2.90645644 12.2891249,2.96051237 12.3936956,3.06501982 L12.945397,3.61999209 C13.1545393,3.82540351 13.1545393,4.05604115 12.945397,4.26145256 L8.47408929,8.73005679 L7.27693271,7.53362404 L11.7518461,3.06501982 C11.7554527,3.06501982 11.7554527,3.06501982 11.7554527,3.06501982 C11.8600234,2.96051237 11.9681997,2.90645644 12.076377,2.90645644 Z M6.62787191,8.1822924 L7.82502849,9.37872514 L5.01603736,12.1824144 L3.52319798,12.4815219 L3.82248736,10.9823772 L6.62787191,8.1822924 Z" id="Shape" fill="#4A4A4A" fill-rule="nonzero"></path>
                    </g>
                </g>
            </g>
        </g>
    </g>
</svg>