<?xml version="1.0" encoding="UTF-8"?>
<svg width="12px" height="12px" viewBox="0 0 12 12" version="1.1" xmlns="http://www.w3.org/2000/svg" xmlns:xlink="http://www.w3.org/1999/xlink">
    <!-- Generator: Sketch 49 (51002) - http://www.bohemiancoding.com/sketch -->
    <title>author icon copy</title>
    <desc>Created with Sketch.</desc>
    <defs></defs>
    <g id="Page-1" stroke="none" stroke-width="1" fill="none" fill-rule="evenodd">
        <g id="receptsida" transform="translate(-674.000000, -1083.000000)">
            <g id="Rubriker-|-Meta-|-Author-|-Shortcut-|-ingress" transform="translate(240.000000, 896.000000)">
                <g id="author" transform="translate(416.000000, 136.000000)">
                    <g id="author-icon-copy" transform="translate(16.000000, 49.000000)">
                        <rect id="Rectangle-2" x="0" y="0" width="16" height="16"></rect>
                        <path d="M3.84615385,2 L3.84615385,2.92307692 L3.38461538,2.92307692 C2.62379785,2.92307692 2,3.54687477 2,4.30769231 L2,12.6153846 C2,13.3762022 2.62379785,14 3.38461538,14 L12.6153846,14 C13.3762022,14 14,13.3762022 14,12.6153846 L14,4.30769231 C14,3.54687477 13.3762022,2.92307692 12.6153846,2.92307692 L12.1538462,2.92307692 L12.1538462,2 L11.2307692,2 L11.2307692,2.92307692 L4.76923077,2.92307692 L4.76923077,2 L3.84615385,2 Z M3.38461538,3.84615385 L3.84615385,3.84615385 L3.84615385,4.76923077 L4.76923077,4.76923077 L4.76923077,3.84615385 L11.2307692,3.84615385 L11.2307692,4.76923077 L12.1538462,4.76923077 L12.1538462,3.84615385 L12.6153846,3.84615385 C12.875,3.84615385 13.0769231,4.04807692 13.0769231,4.30769231 L13.0769231,5.69230769 L2.92307692,5.69230769 L2.92307692,4.30769231 C2.92307692,4.04807692 3.125,3.84615385 3.38461538,3.84615385 Z M2.92307692,6.61538462 L13.0769231,6.61538462 L13.0769231,12.6153846 C13.0769231,12.875 12.875,13.0769231 12.6153846,13.0769231 L3.38461538,13.0769231 C3.125,13.0769231 2.92307692,12.875 2.92307692,12.6153846 L2.92307692,6.61538462 Z M5.69230769,7.53846154 L5.69230769,8.46153846 L6.61538462,8.46153846 L6.61538462,7.53846154 L5.69230769,7.53846154 Z M7.53846154,7.53846154 L7.53846154,8.46153846 L8.46153846,8.46153846 L8.46153846,7.53846154 L7.53846154,7.53846154 Z M9.38461538,7.53846154 L9.38461538,8.46153846 L10.3076923,8.46153846 L10.3076923,7.53846154 L9.38461538,7.53846154 Z M11.2307692,7.53846154 L11.2307692,8.46153846 L12.1538462,8.46153846 L12.1538462,7.53846154 L11.2307692,7.53846154 Z M3.84615385,9.38461538 L3.84615385,10.3076923 L4.76923077,10.3076923 L4.76923077,9.38461538 L3.84615385,9.38461538 Z M5.69230769,9.38461538 L5.69230769,10.3076923 L6.61538462,10.3076923 L6.61538462,9.38461538 L5.69230769,9.38461538 Z M7.53846154,9.38461538 L7.53846154,10.3076923 L8.46153846,10.3076923 L8.46153846,9.38461538 L7.53846154,9.38461538 Z M9.38461538,9.38461538 L9.38461538,10.3076923 L10.3076923,10.3076923 L10.3076923,9.38461538 L9.38461538,9.38461538 Z M11.2307692,9.38461538 L11.2307692,10.3076923 L12.1538462,10.3076923 L12.1538462,9.38461538 L11.2307692,9.38461538 Z M3.84615385,11.2307692 L3.84615385,12.1538462 L4.76923077,12.1538462 L4.76923077,11.2307692 L3.84615385,11.2307692 Z M5.69230769,11.2307692 L5.69230769,12.1538462 L6.61538462,12.1538462 L6.61538462,11.2307692 L5.69230769,11.2307692 Z M7.53846154,11.2307692 L7.53846154,12.1538462 L8.46153846,12.1538462 L8.46153846,11.2307692 L7.53846154,11.2307692 Z" id="Shape" fill="#4A4A4A" fill-rule="nonzero"></path>
                    </g>
                </g>
            </g>
        </g>
    </g>
</svg>