<?xml version="1.0" encoding="UTF-8"?>
<svg width="12px" height="12px" viewBox="0 0 12 12" version="1.1" xmlns="http://www.w3.org/2000/svg" xmlns:xlink="http://www.w3.org/1999/xlink">
    <!-- Generator: Sketch 49 (51002) - http://www.bohemiancoding.com/sketch -->
    <title>level icon</title>
    <desc>Created with Sketch.</desc>
    <defs></defs>
    <g id="Page-1" stroke="none" stroke-width="1" fill="none" fill-rule="evenodd">
        <g id="receptsida" transform="translate(-258.000000, -1082.000000)">
            <g id="Rubriker-|-Meta-|-Author-|-Shortcut-|-ingress" transform="translate(240.000000, 896.000000)">
                <g id="Recept-metadata" transform="translate(0.000000, 136.000000)">
                    <g id="level-icon" transform="translate(16.000000, 48.000000)">
                        <rect id="Rectangle-4" x="0" y="0" width="16" height="16"></rect>
                        <path d="M3.5,2 C2.675781,2 2,2.675781 2,3.5 L2,12.5 C2,13.324219 2.675781,14 3.5,14 L12.5,14 C13.324219,14 14,13.324219 14,12.5 L14,3.5 C14,2.675781 13.324219,2 12.5,2 L3.5,2 Z M3.5,3 L12.5,3 C12.78125,3 13,3.21875 13,3.5 L13,12.5 C13,12.78125 12.78125,13 12.5,13 L3.5,13 C3.21875,13 3,12.78125 3,12.5 L3,3.5 C3,3.21875 3.21875,3 3.5,3 Z M8,4.75 L7.007813,6.980469 L4.578125,7.234375 L6.398438,8.863281 L5.886719,11.25 L8,10.027344 L10.113281,11.25 L9.601563,8.863281 L11.421875,7.234375 L8.992188,6.980469 L8,4.75 Z" id="Shape" fill="#4A4A4A" fill-rule="nonzero"></path>
                    </g>
                </g>
            </g>
        </g>
    </g>
</svg>