<?xml version="1.0" encoding="utf-8"?>
<!-- Generator: Adobe Illustrator 22.0.1, SVG Export Plug-In . SVG Version: 6.00 Build 0)  -->
<!DOCTYPE svg PUBLIC "-//W3C//DTD SVG 1.1//EN" "http://www.w3.org/Graphics/SVG/1.1/DTD/svg11.dtd">
<svg version="1.1" id="Lager_1" xmlns="http://www.w3.org/2000/svg" xmlns:xlink="http://www.w3.org/1999/xlink" x="0px" y="0px"
	 viewBox="0 0 16 16" style="enable-background:new 0 0 16 16;" xml:space="preserve">
<style type="text/css">
	.st0{fill:#FFFFFF;}
</style>
<path class="st0" d="M2.2,0h11.6C15,0,16,1,16,2.2v11.6c0,1.2-1,2.2-2.2,2.2h-2.3v-5.9h2l0.3-2.3h-2.3V6.3c0-0.7,0.2-1.1,1.2-1.1
	h1.2V3.1C13.7,3,13,3,12.1,3c-1.8,0-3,1.1-3,3.1v1.7l-1.8,0v2.3l1.8,0V16H2.2C1,16,0,15,0,13.8V2.2C0,1,1,0,2.2,0z"/>
</svg>
