<?xml version="1.0" encoding="UTF-8"?>
<svg width="12px" height="12px" viewBox="0 0 12 12" version="1.1" xmlns="http://www.w3.org/2000/svg" xmlns:xlink="http://www.w3.org/1999/xlink">
    <!-- Generator: Sketch 49 (51002) - http://www.bohemiancoding.com/sketch -->
    <title>Group</title>
    <desc>Created with Sketch.</desc>
    <defs></defs>
    <g id="Page-1" stroke="none" stroke-width="1" fill="none" fill-rule="evenodd">
        <g id="receptsida" transform="translate(-266.000000, -1178.000000)">
            <g id="Rubriker-|-Meta-|-Author-|-Shortcut-|-ingress" transform="translate(240.000000, 896.000000)">
                <g id="Shortcut!" transform="translate(16.000000, 272.000000)">
                    <g id="Group" transform="translate(8.000000, 8.000000)">
                        <rect id="Rectangle-7" x="0" y="0" width="16" height="16"></rect>
                        <path d="M12.6265275,2 C10.7165427,2 9.26080473,2.47713071 8.43457494,3.44215284 L8.43099842,3.44574006 L6.57466425,5.67354239 L6.21698912,5.67354239 C4.91147512,5.67354239 3.96363625,5.91390135 3.33770454,6.16143474 C2.7081963,6.40896905 2.3684047,6.69596454 2.3684047,6.69596454 L2,7.01883402 L8.83874853,14 L9.16065569,13.6914794 C9.16065569,13.6914794 9.49329333,13.3650218 9.77943344,12.740807 C10.0655735,12.1130041 10.3374066,11.1551564 10.3374066,9.80627758 L10.3374066,9.44035878 L12.5585699,7.58206246 L12.5621464,7.57847525 C13.5242923,6.75336364 14,5.29327381 14,3.3775784 L14,2 L12.6265275,2 Z M12.6265275,2.9183856 L13.0843517,2.9183856 L13.0843517,3.3775784 C13.0843517,5.13542629 12.6265275,6.31569505 11.9648287,6.88251162 L7.15767495,10.9004486 L5.11892715,8.85560522 L9.13204168,4.03408083 C9.70074537,3.37399118 10.8774963,2.9183856 12.6265275,2.9183856 Z M11.253055,3.8367712 C10.7487333,3.8367712 10.3374066,4.24932745 10.3374066,4.75515679 C10.3374066,5.26098705 10.7487333,5.67354239 11.253055,5.67354239 C11.7573776,5.67354239 12.1687033,5.26098705 12.1687033,4.75515679 C12.1687033,4.24932745 11.7573776,3.8367712 11.253055,3.8367712 Z M5.79493292,6.6098659 L4.45365095,8.21704069 L3.41639352,7.15515734 C3.52369561,7.09417011 3.48077459,7.0905829 3.67391962,7.01524681 C4.12816635,6.83587416 4.83278705,6.65650243 5.79493292,6.6098659 Z M9.40387478,10.2188338 C9.35380072,11.2089683 9.14992521,11.9121073 8.94605061,12.3569503 C8.85305553,12.5650225 8.84590157,12.5255604 8.77794307,12.629596 L7.75856917,11.592825 L9.40387478,10.2188338 Z M3.92786828,10.2582959 L2.0965716,13.9318383 L5.75916495,12.0950671 L3.92786828,10.2582959 Z" id="Shape" fill="#4A4A4A" fill-rule="nonzero"></path>
                    </g>
                </g>
            </g>
        </g>
    </g>
</svg>