<?xml version="1.0" encoding="utf-8"?>
<!-- Generator: Adobe Illustrator 22.0.1, SVG Export Plug-In . SVG Version: 6.00 Build 0)  -->
<!DOCTYPE svg PUBLIC "-//W3C//DTD SVG 1.1//EN" "http://www.w3.org/Graphics/SVG/1.1/DTD/svg11.dtd">
<svg version="1.1" id="Lager_1" xmlns="http://www.w3.org/2000/svg" xmlns:xlink="http://www.w3.org/1999/xlink" x="0px" y="0px"
	 viewBox="0 0 16 16" style="enable-background:new 0 0 16 16;" xml:space="preserve">
<style type="text/css">
	.st0{fill:#FFFFFF;}
</style>
<path class="st0" d="M11.4,0H4.6C2.1,0,0,2.1,0,4.6v6.7C0,13.9,2.1,16,4.6,16h6.7c2.6,0,4.6-2.1,4.6-4.6V4.6C16,2.1,13.9,0,11.4,0z
	 M8,12c-2.2,0-4-1.8-4-4s1.8-4,4-4s4,1.8,4,4S10.2,12,8,12z M13.5,3C13.2,3,13,2.8,13,2.5S13.2,2,13.5,2S14,2.2,14,2.5
	S13.8,3,13.5,3z"/>
</svg>
