<?xml version="1.0" encoding="UTF-8"?>
<svg width="15px" height="14px" viewBox="0 0 15 14" version="1.1" xmlns="http://www.w3.org/2000/svg" xmlns:xlink="http://www.w3.org/1999/xlink">
    <!-- Generator: Sketch 49.3 (51167) - http://www.bohemiancoding.com/sketch -->
    <title>icons8-share</title>
    <desc>Created with Sketch.</desc>
    <defs></defs>
    <g id="Page-1" stroke="none" stroke-width="1" fill="none" fill-rule="evenodd">
        <g id="receptsida" transform="translate(-256.000000, -3619.000000)">
            <g id="dela" transform="translate(256.000000, 3544.000000)">
                <g id="icons8-share" transform="translate(0.000000, 73.000000)">
                    <rect id="Rectangle-10" x="0" y="0" width="16" height="16"></rect>
                    <path d="M12.3214286,2 C10.8482143,2 9.64285714,3.21153846 9.64285714,4.69230769 C9.64285714,4.87740385 9.66378321,5.05408708 9.69726536,5.23076923 L4.84235464,7.42668323 C4.35267857,6.75360631 3.56584821,6.30769231 2.67857143,6.30769231 C1.20535714,6.30769231 0,7.51923077 0,9 C0,10.4807692 1.20535714,11.6923077 2.67857143,11.6923077 C3.57003321,11.6923077 4.36523464,11.2421872 4.85072571,10.5606974 L9.70982143,12.7313705 C9.66796929,12.9164666 9.64285714,13.1099757 9.64285714,13.3076923 C9.64285714,14.7884615 10.8482143,16 12.3214286,16 C13.7946429,16 15,14.7884615 15,13.3076923 C15,11.8269231 13.7946429,10.6153846 12.3214286,10.6153846 C11.4299668,10.6153846 10.6347654,11.0655051 10.1492743,11.7469949 L5.29017857,9.58052938 C5.33203179,9.39122569 5.35714286,9.19771662 5.35714286,9 C5.35714286,8.79807692 5.33203179,8.60036031 5.29017857,8.41105769 L10.1199782,6.21514477 C10.6054693,6.92187554 11.4132257,7.38461538 12.3214286,7.38461538 C13.7946429,7.38461538 15,6.17307692 15,4.69230769 C15,3.21153846 13.7946429,2 12.3214286,2 Z M12.3214286,3.07692308 C13.2170764,3.07692308 13.9285714,3.79206785 13.9285714,4.69230769 C13.9285714,5.59254862 13.2170764,6.30769231 12.3214286,6.30769231 C11.4257818,6.30769231 10.7142857,5.59254862 10.7142857,4.69230769 C10.7142857,3.79206785 11.4257818,3.07692308 12.3214286,3.07692308 Z M2.67857143,7.38461538 C3.57421929,7.38461538 4.28571429,8.09976015 4.28571429,9 C4.28571429,9.90024092 3.57421929,10.6153846 2.67857143,10.6153846 C1.78292464,10.6153846 1.07142857,9.90024092 1.07142857,9 C1.07142857,8.09976015 1.78292464,7.38461538 2.67857143,7.38461538 Z M12.3214286,11.6923077 C13.2170764,11.6923077 13.9285714,12.4074525 13.9285714,13.3076923 C13.9285714,14.2079332 13.2170764,14.9230769 12.3214286,14.9230769 C11.4257818,14.9230769 10.7142857,14.2079332 10.7142857,13.3076923 C10.7142857,12.4074525 11.4257818,11.6923077 12.3214286,11.6923077 Z" id="Shape" fill="#4A4A4A" fill-rule="nonzero"></path>
                </g>
            </g>
        </g>
    </g>
</svg>