<?xml version="1.0" encoding="UTF-8"?>
<svg width="12px" height="12px" viewBox="0 0 12 12" version="1.1" xmlns="http://www.w3.org/2000/svg" xmlns:xlink="http://www.w3.org/1999/xlink">
    <!-- Generator: Sketch 49 (51002) - http://www.bohemiancoding.com/sketch -->
    <title>author icon copy 2</title>
    <desc>Created with Sketch.</desc>
    <defs></defs>
    <g id="Page-1" stroke="none" stroke-width="1" fill="none" fill-rule="evenodd">
        <g id="receptsida" transform="translate(-674.000000, -1115.000000)">
            <g id="Rubriker-|-Meta-|-Author-|-Shortcut-|-ingress" transform="translate(240.000000, 896.000000)">
                <g id="author" transform="translate(416.000000, 136.000000)">
                    <g id="author-icon-copy-2" transform="translate(16.000000, 81.000000)">
                        <rect id="Rectangle-2" x="0" y="0" width="16" height="16"></rect>
                        <path d="M3.38461538,2 C2.62379785,2 2,2.62379785 2,3.38461538 L2,12.6153846 C2,13.3762022 2.62379785,14 3.38461538,14 L12.6153846,14 C13.3762022,14 14,13.3762022 14,12.6153846 L14,3.38461538 C14,2.62379785 13.3762022,2 12.6153846,2 L3.38461538,2 Z M3.38461538,2.92307692 L12.6153846,2.92307692 C12.875,2.92307692 13.0769231,3.125 13.0769231,3.38461538 L13.0769231,12.6153846 C13.0769231,12.875 12.875,13.0769231 12.6153846,13.0769231 L3.38461538,13.0769231 C3.125,13.0769231 2.92307692,12.875 2.92307692,12.6153846 L2.92307692,3.38461538 C2.92307692,3.125 3.125,2.92307692 3.38461538,2.92307692 Z M4.76923077,4.76923077 L4.76923077,5.69230769 L5.69230769,5.69230769 L5.69230769,4.76923077 L4.76923077,4.76923077 Z M6.61538462,4.76923077 L6.61538462,5.69230769 L11.2307692,5.69230769 L11.2307692,4.76923077 L6.61538462,4.76923077 Z M4.76923077,7.53846154 L4.76923077,8.46153846 L5.69230769,8.46153846 L5.69230769,7.53846154 L4.76923077,7.53846154 Z M6.61538462,7.53846154 L6.61538462,8.46153846 L11.2307692,8.46153846 L11.2307692,7.53846154 L6.61538462,7.53846154 Z M4.76923077,10.3076923 L4.76923077,11.2307692 L5.69230769,11.2307692 L5.69230769,10.3076923 L4.76923077,10.3076923 Z M6.61538462,10.3076923 L6.61538462,11.2307692 L11.2307692,11.2307692 L11.2307692,10.3076923 L6.61538462,10.3076923 Z" id="Shape" fill="#4A4A4A" fill-rule="nonzero"></path>
                    </g>
                </g>
            </g>
        </g>
    </g>
</svg>