<?xml version="1.0" encoding="UTF-8"?>
<svg width="14px" height="12px" viewBox="0 0 14 12" version="1.1" xmlns="http://www.w3.org/2000/svg" xmlns:xlink="http://www.w3.org/1999/xlink">
    <!-- Generator: Sketch 49 (51002) - http://www.bohemiancoding.com/sketch -->
    <title>kategori icon</title>
    <desc>Created with Sketch.</desc>
    <defs></defs>
    <g id="Page-1" stroke="none" stroke-width="1" fill="none" fill-rule="evenodd">
        <g id="receptsida" transform="translate(-257.000000, -1114.000000)">
            <g id="Rubriker-|-Meta-|-Author-|-Shortcut-|-ingress" transform="translate(240.000000, 896.000000)">
                <g id="Recept-metadata" transform="translate(0.000000, 136.000000)">
                    <g id="kategori-icon" transform="translate(16.000000, 80.000000)">
                        <rect id="Rectangle-3" x="0" y="0" width="16" height="16"></rect>
                        <path d="M8,2 C4.13906227,2 1,5.10456708 1,8.92307692 C1,10.0913462 1.30625,11.1875 1.8239588,12.1538462 L1.80937547,12.1538462 C1.92604213,12.3665868 2.06093773,12.5793274 2.19947893,12.7812505 C2.2213544,12.8137022 2.23593773,12.8497594 2.2614588,12.8786055 L2.26875,12.875 C2.3161456,12.9435098 2.36354213,13.0192308 2.41458333,13.0769231 L3.64687547,13.0769231 C3.40625,12.8281252 3.17656227,12.5540868 2.97604213,12.2692308 C2.32343773,11.3100966 1.93333333,10.1670671 1.93333333,8.92307692 C1.93333333,5.60216369 4.64218773,2.92307692 8,2.92307692 C11.3578123,2.92307692 14.0666667,5.60216369 14.0666667,8.92307692 C14.0666667,10.1670671 13.6765623,11.3100966 13.0239588,12.2692308 C12.8234377,12.5540868 12.59375,12.8281252 12.3494789,13.0769231 L13.5854167,13.0769231 C13.6364588,13.0192308 13.6838544,12.9435098 13.73125,12.875 L13.7421877,12.8786055 C13.7640623,12.8497594 13.7786456,12.8137022 13.8005211,12.7812505 C13.9390623,12.5793274 14.0739588,12.3665868 14.1869789,12.1538462 L14.1760421,12.1538462 C14.69375,11.1875 15,10.0913462 15,8.92307692 C15,5.10456708 11.8609377,2 8,2 Z M6.13333333,5.69230769 C5.40052107,5.69230769 4.81354213,6.17548123 4.41979213,6.77043292 C4.02968773,7.36538462 3.8,8.11177908 3.8,8.847356 C3.8,9.58293292 4.05156227,10.2031252 4.48906227,10.6177889 C4.81354213,10.9278846 5.22552107,11.1117791 5.66666667,11.1875 L5.66666667,14 L6.6,14 L6.6,11.1875 C7.0411456,11.1117791 7.45312547,10.9278846 7.7776044,10.6177889 C8.2151044,10.2031252 8.46666667,9.58293292 8.46666667,8.847356 C8.46666667,8.11177908 8.23697893,7.36538462 7.84687547,6.77043292 C7.45312547,6.17548123 6.8661456,5.69230769 6.13333333,5.69230769 Z M9.4,5.69230769 L9.4,9.38461538 L10.3333333,9.38461538 L10.3333333,5.69230769 L9.4,5.69230769 Z M11.2666667,5.69230769 L11.2666667,9.84615385 C11.2666667,10.1057692 11.0625,10.3076923 10.8,10.3076923 L9.0973956,10.3076923 C8.9552088,10.6286055 8.76927107,10.9206735 8.53958333,11.1694714 C8.66354213,11.2055286 8.79479213,11.2307692 8.93333333,11.2307692 L9.4,11.2307692 L9.4,14 L10.3333333,14 L10.3333333,11.2307692 L10.8,11.2307692 C11.5692711,11.2307692 12.2,10.6069714 12.2,9.84615385 L12.2,5.69230769 L11.2666667,5.69230769 Z M6.13333333,6.61538462 C6.43229213,6.61538462 6.7786456,6.84254831 7.06302107,7.27163508 C7.3473956,7.70432738 7.53333333,8.31009662 7.53333333,8.847356 C7.53333333,9.38461538 7.36927107,9.72355815 7.13229213,9.95432738 C6.89166667,10.1814902 6.5489588,10.3076923 6.13333333,10.3076923 C5.7177088,10.3076923 5.375,10.1814902 5.13437547,9.95432738 C4.8973956,9.72355815 4.73333333,9.38461538 4.73333333,8.847356 C4.73333333,8.31009662 4.91927107,7.70432738 5.2036456,7.27163508 C5.48802107,6.84254831 5.83437547,6.61538462 6.13333333,6.61538462 Z" id="Shape" fill="#4A4A4A" fill-rule="nonzero"></path>
                    </g>
                </g>
            </g>
        </g>
    </g>
</svg>