<?xml version="1.0" encoding="UTF-8"?>
<svg width="12px" height="12px" viewBox="0 0 12 12" version="1.1" xmlns="http://www.w3.org/2000/svg" xmlns:xlink="http://www.w3.org/1999/xlink">
    <!-- Generator: Sketch 49.3 (51167) - http://www.bohemiancoding.com/sketch -->
    <title>tag</title>
    <desc>Created with Sketch.</desc>
    <defs></defs>
    <g id="Page-1" stroke="none" stroke-width="1" fill="none" fill-rule="evenodd">
        <g id="receptsida" transform="translate(-258.000000, -3570.000000)">
            <g id="taggar" transform="translate(256.000000, 3564.000000)">
                <g id="tag" transform="translate(0.000000, 4.000000)">
                    <g id="icons8-price-tag" transform="translate(2.000000, 2.000000)" fill="#000000" fill-rule="nonzero">
                        <path d="M6.86538462,0 C6.49399015,0 6.14062523,0.147836308 5.88461538,0.411058154 L0.403846154,5.93509662 C-0.129807692,6.472356 -0.129807692,7.35216369 0.403846154,7.88942308 L4.11057692,11.5961538 C4.64783631,12.1298077 5.527644,12.1298077 6.06490431,11.5961538 L11.5925483,6.11538462 C11.8521637,5.85576923 12,5.50240431 12,5.13461538 L12,1.38461538 C12,0.623797846 11.3762022,0 10.6153846,0 L6.86538462,0 Z M6.86538462,0.923076923 L10.6153846,0.923076923 C10.875,0.923076923 11.0769231,1.125 11.0769231,1.38461538 L11.0769231,5.13461538 C11.0769231,5.257212 11.0264428,5.37620215 10.9399043,5.46274062 L5.41586585,10.9435098 C5.23197138,11.1274043 4.94711538,11.1237978 4.76682738,10.9435098 L1.06009662,7.23317354 C0.872596615,7.04927908 0.872596615,6.76802862 1.05649015,6.58413508 L6.53725938,1.06009662 C6.62379785,0.973558154 6.74278892,0.923076923 6.86538462,0.923076923 Z M9.69230769,1.84615385 C9.43629785,1.84615385 9.23076923,2.05168246 9.23076923,2.30769231 C9.23076923,2.56370215 9.43629785,2.76923077 9.69230769,2.76923077 C9.94831754,2.76923077 10.1538462,2.56370215 10.1538462,2.30769231 C10.1538462,2.05168246 9.94831754,1.84615385 9.69230769,1.84615385 Z" id="Shape"></path>
                    </g>
                    <rect id="Rectangle-9" x="0" y="0" width="16" height="16"></rect>
                </g>
            </g>
        </g>
    </g>
</svg>