<?xml version="1.0" encoding="UTF-8"?>
<svg width="10px" height="12px" viewBox="0 0 10 12" version="1.1" xmlns="http://www.w3.org/2000/svg" xmlns:xlink="http://www.w3.org/1999/xlink">
    <!-- Generator: Sketch 49 (51002) - http://www.bohemiancoding.com/sketch -->
    <title>timer</title>
    <desc>Created with Sketch.</desc>
    <defs></defs>
    <g id="Page-1" stroke="none" stroke-width="1" fill="none" fill-rule="evenodd">
        <g id="receptsida" transform="translate(-259.000000, -1050.000000)">
            <g id="Rubriker-|-Meta-|-Author-|-Shortcut-|-ingress" transform="translate(240.000000, 896.000000)">
                <g id="Recept-metadata" transform="translate(0.000000, 136.000000)">
                    <g id="timer" transform="translate(16.000000, 16.000000)">
                        <rect id="Rectangle" x="0" y="0" width="16" height="16"></rect>
                        <path d="M7.09103286,2.00010431 C6.9276761,1.9964988 6.77497239,2.08664202 6.69329355,2.22726603 C6.6080637,2.37149554 6.6080637,2.55178197 6.69329355,2.69601149 C6.77497239,2.8366355 6.9276761,2.92677872 7.09103286,2.92317321 L7.54559206,2.92317321 L7.54559206,3.867877 C5.0029015,4.10585524 3,6.28011541 3,8.92312105 C3,11.7211737 5.24438608,14 8.00015127,14 C10.7559165,14 13.0003025,11.7211737 13.0003025,8.92312105 C13.0003025,7.68995916 12.5634993,6.557757 11.8390456,5.67795695 L12.8689067,4.63229343 C13.0003025,4.50248686 13.0393665,4.30056554 12.9683416,4.12388369 C12.8937657,3.95080828 12.723306,3.83903109 12.5350894,3.8426366 C12.4178986,3.84624211 12.3078098,3.8967229 12.2225799,3.98326061 L11.1962707,5.02531863 C10.439856,4.38349682 9.49167367,3.96523123 8.45471048,3.867877 L8.45471048,2.92317321 L8.90926968,2.92317321 C9.07262735,2.92677872 9.22533016,2.8366355 9.30700899,2.69601149 C9.39223884,2.55178197 9.39223884,2.37149554 9.30700899,2.22726603 C9.22533016,2.08664202 9.07262735,1.9964988 8.90926968,2.00010431 L7.09103286,2.00010431 Z M8.00015127,4.76931101 C10.2658453,4.76931101 12.0911841,6.62266074 12.0911841,8.92312105 C12.0911841,11.2235823 10.2658453,13.0769311 8.00015127,13.0769311 C5.73445818,13.0769311 3.90911841,11.2235823 3.90911841,8.92312105 C3.90911841,6.62266074 5.73445818,4.76931101 8.00015127,4.76931101 Z M7.99304924,5.68516889 C7.7409107,5.6887744 7.54204105,5.89790673 7.54559206,6.15391436 L7.54559206,8.92312105 C7.54204105,9.08898546 7.63082192,9.24403149 7.76932065,9.3269637 C7.9113704,9.41350141 8.08893214,9.41350141 8.23098189,9.3269637 C8.36948063,9.24403149 8.45826149,9.08898546 8.45471048,8.92312105 L8.45471048,6.15391436 C8.45826149,6.0277133 8.40854454,5.90872418 8.32331468,5.81858096 C8.23453382,5.73204325 8.11734209,5.68156246 7.99304924,5.68516889 Z" id="Shape" fill="#4A4A4A" fill-rule="nonzero"></path>
                    </g>
                </g>
            </g>
        </g>
    </g>
</svg>