<?xml version="1.0" encoding="utf-8"?>
<!-- Generator: Adobe Illustrator 22.1.0, SVG Export Plug-In . SVG Version: 6.00 Build 0)  -->
<!DOCTYPE svg PUBLIC "-//W3C//DTD SVG 1.1//EN" "http://www.w3.org/Graphics/SVG/1.1/DTD/svg11.dtd">
<svg version="1.1" id="Lager_1" xmlns="http://www.w3.org/2000/svg" xmlns:xlink="http://www.w3.org/1999/xlink" x="0px" y="0px"
	 viewBox="0 0 247 48" style="enable-background:new 0 0 247 48;" xml:space="preserve">
<style type="text/css">
	.st0{fill:#9DC6C5;}
	.st1{fill:#FFFFFF;}
</style>
<title>Resurs 2</title>
<path class="st0" d="M245,0H2C0.9,0,0,0.9,0,2v44c0,1.1,0.9,2,2,2h243c1.1,0,2-0.9,2-2V2C247,0.9,246.1,0,245,0z"/>
<path class="st1" d="M30,16.3h3l3,13.9h0.4l3-13.9h3L39,31.7h-5.5L30,16.3z"/>
<path class="st1" d="M50.5,16.3h9.8v2.8h-6.9v3.5H60v2.8h-6.5v3.6h7.1v2.8h-10L50.5,16.3z"/>
<path class="st1" d="M73.7,23.9h6.6v7.8h-2.7V30h-0.4c-0.2,0.6-0.5,1.1-1,1.4c-0.7,0.4-1.5,0.6-2.2,0.6c-0.7,0-1.4-0.1-2-0.4
	c-0.6-0.3-1.2-0.7-1.6-1.2c-0.5-0.6-0.9-1.2-1.1-1.9c-0.3-0.9-0.4-1.8-0.4-2.7v-3.6c0-0.9,0.1-1.8,0.4-2.6c0.3-0.7,0.7-1.4,1.2-2
	c0.5-0.5,1.1-0.9,1.8-1.2c0.7-0.3,1.5-0.4,2.3-0.4c0.8,0,1.6,0.1,2.4,0.4c1.3,0.5,2.4,1.6,2.9,3c0.3,0.7,0.4,1.4,0.4,2.2v0.3h-2.9
	v-0.3c0.1-0.8-0.2-1.5-0.7-2.1c-0.5-0.5-1.3-0.7-2-0.7c-0.8,0-1.5,0.3-2,0.8c-0.6,0.8-0.9,1.8-0.8,2.8v3.2c0,2.4,1,3.5,2.9,3.6
	c0.7,0.1,1.5-0.2,2-0.7c0.5-0.5,0.7-1.2,0.7-1.9h-3.8V23.9z"/>
<path class="st1" d="M88.3,22.3c-0.1-1.7,0.4-3.3,1.5-4.6c2.4-2.2,6-2.2,8.4,0c1.1,1.3,1.6,3,1.5,4.6v3.4c0.1,1.7-0.4,3.4-1.5,4.7
	c-2.4,2.1-6,2.1-8.4,0c-1.1-1.3-1.6-3-1.5-4.7L88.3,22.3z M94,29.4c0.5,0,0.9-0.1,1.3-0.2c0.3-0.2,0.6-0.4,0.9-0.7
	c0.2-0.3,0.4-0.7,0.5-1.1c0.1-0.5,0.1-0.9,0.1-1.4v-3.8c0-0.5-0.1-0.9-0.2-1.4c-0.1-0.4-0.3-0.8-0.5-1.1c-0.2-0.3-0.5-0.6-0.9-0.7
	c-0.8-0.4-1.8-0.4-2.6,0c-0.3,0.2-0.6,0.4-0.9,0.7c-0.2,0.3-0.4,0.7-0.5,1.1c-0.1,0.4-0.2,0.9-0.2,1.4v3.8c0,0.5,0,0.9,0.1,1.4
	c0.1,0.4,0.2,0.8,0.5,1.1c0.2,0.3,0.5,0.5,0.9,0.7C93.1,29.3,93.5,29.4,94,29.4z"/>
<path class="st1" d="M107.1,16.3h3l3,13.9h0.4l3-13.9h3L116,31.7h-5.5L107.1,16.3z"/>
<path class="st1" d="M127.6,16.3h9.8v2.8h-6.9v3.5h6.6v2.8h-6.6v3.6h7.1v2.8h-10L127.6,16.3z"/>
<path class="st1" d="M151.9,29.4c0.5,0,0.9-0.1,1.4-0.2c0.3-0.2,0.6-0.4,0.8-0.7c0.2-0.3,0.3-0.6,0.4-1c0.1-0.4,0.1-0.8,0.1-1.1
	v-0.4h2.9v0.4c0.1,1.5-0.4,3.1-1.4,4.2c-2.5,2-6,2-8.4-0.1c-1.1-1.3-1.7-3-1.6-4.7v-3.4c0-0.9,0.1-1.8,0.4-2.6
	c0.2-0.7,0.6-1.4,1.1-2c0.5-0.5,1.1-1,1.8-1.2c0.8-0.3,1.6-0.4,2.4-0.4c0.8,0,1.7,0.1,2.4,0.4c0.7,0.2,1.3,0.6,1.8,1.1
	c0.5,0.5,0.9,1.1,1.1,1.8c0.2,0.8,0.4,1.6,0.4,2.4v0.4h-2.9v-0.4c0-0.4,0-0.7-0.1-1.1c-0.1-0.4-0.2-0.7-0.4-1
	c-0.2-0.3-0.5-0.5-0.8-0.7c-0.4-0.2-0.9-0.3-1.3-0.3c-0.4,0-0.9,0.1-1.3,0.3c-0.3,0.2-0.7,0.4-0.9,0.8c-0.2,0.3-0.4,0.7-0.5,1.1
	c-0.1,0.4-0.2,0.8-0.2,1.3v3.9c0,0.5,0.1,0.9,0.1,1.4c0.1,0.4,0.3,0.8,0.5,1.1c0.2,0.3,0.5,0.6,0.9,0.7
	C150.9,29.3,151.4,29.4,151.9,29.4z"/>
<path class="st1" d="M168.9,31.7H166V16.3h2.9v6.3h0.6l4.1-6.3h3.3v0.1l-4.8,7.4v0.4l5,7.4v0.1h-3.4l-4.2-6.3h-0.6L168.9,31.7z"/>
<path class="st1" d="M193,28.4h-5.3l-0.7,3.3h-3l3.7-15.4h5.5l3.7,15.4h-3L193,28.4z M188.4,25.6h4l-1.8-7.9h-0.4L188.4,25.6z"/>
<path class="st1" d="M211.7,30.2h0.4V16.3h2.9v15.4h-5.7l-1.8-13.9h-0.4v13.9h-2.9V16.3h5.7L211.7,30.2z"/>
</svg>
