<?xml version="1.0" encoding="utf-8"?>
<!-- Generator: Adobe Illustrator 22.1.0, SVG Export Plug-In . SVG Version: 6.00 Build 0)  -->
<!DOCTYPE svg PUBLIC "-//W3C//DTD SVG 1.1//EN" "http://www.w3.org/Graphics/SVG/1.1/DTD/svg11.dtd">
<svg version="1.1" id="Lager_1" xmlns="http://www.w3.org/2000/svg" xmlns:xlink="http://www.w3.org/1999/xlink" x="0px" y="0px"
	 viewBox="0 0 48 48" style="enable-background:new 0 0 48 48;" xml:space="preserve">
<style type="text/css">
	.st0{fill:#9DC6C5;}
	.st1{fill:#FFFFFF;}
</style>
<title>Resurs 1</title>
<path class="st0" d="M-0.3-88v44h-243v-44H-0.3 M-0.3-90h-243c-1.1,0-2,0.9-2,2v44c0,1.1,0.9,2,2,2h243c1.1,0,2-0.9,2-2v-44
	C1.7-89.1,0.9-90-0.3-90z"/>
<path class="st0" d="M-215.2-73.7h3l3,13.9h0.4l3-13.9h3l-3.4,15.4h-5.5L-215.2-73.7z"/>
<path class="st0" d="M-194.7-73.7h9.8v2.8h-6.9v3.5h6.5v2.8h-6.5v3.6h7.1v2.8h-10L-194.7-73.7z"/>
<path class="st0" d="M-171.5-66.1h6.6v7.8h-2.7V-60h-0.4c-0.2,0.6-0.5,1.1-1,1.4c-0.7,0.4-1.5,0.6-2.2,0.6s-1.4-0.1-2-0.4
	c-0.6-0.3-1.2-0.7-1.6-1.2c-0.5-0.6-0.9-1.2-1.1-1.9c-0.3-0.9-0.4-1.8-0.4-2.7v-3.6c0-0.9,0.1-1.8,0.4-2.6c0.3-0.7,0.7-1.4,1.2-2
	c0.5-0.5,1.1-0.9,1.8-1.2c0.7-0.3,1.5-0.4,2.3-0.4s1.6,0.1,2.4,0.4c0.7,0.3,1.3,0.7,1.8,1.2s0.9,1.1,1.1,1.8
	c0.3,0.7,0.4,1.4,0.4,2.2v0.3h-2.9v-0.3c0.1-0.8-0.2-1.5-0.7-2.1c-0.5-0.5-1.3-0.7-2-0.7c-0.8,0-1.5,0.3-2,0.8
	c-0.6,0.8-0.9,1.8-0.8,2.8v3.2c0,2.4,1,3.6,2.9,3.6c0.7,0.1,1.5-0.2,2-0.7s0.7-1.2,0.7-1.9h-3.8V-66.1z"/>
<path class="st0" d="M-156.9-67.7c-0.1-1.7,0.4-3.3,1.5-4.6c2.4-2.2,6-2.2,8.4,0c1.1,1.3,1.6,3,1.5,4.6v3.4c0.1,1.7-0.4,3.4-1.5,4.7
	c-2.4,2.1-6,2.1-8.4,0c-1.1-1.3-1.6-3-1.5-4.7V-67.7z M-151.2-60.6c0.5,0,0.9-0.1,1.3-0.2c0.3-0.2,0.6-0.4,0.9-0.7
	c0.2-0.3,0.4-0.7,0.5-1.1c0.1-0.5,0.1-0.9,0.1-1.4v-3.8c0-0.5,0-0.9-0.2-1.4c-0.1-0.4-0.2-0.8-0.5-1.1c-0.2-0.3-0.5-0.6-0.9-0.7
	c-0.4-0.2-0.8-0.3-1.3-0.3c-0.4,0-0.9,0.1-1.3,0.3c-0.3,0.2-0.6,0.4-0.9,0.7c-0.2,0.3-0.4,0.7-0.5,1.1s-0.2,0.9-0.2,1.4v3.8
	c0,0.5,0,0.9,0.1,1.4c0.1,0.4,0.2,0.8,0.5,1.1c0.2,0.3,0.5,0.5,0.9,0.7C-152.2-60.7-151.7-60.6-151.2-60.6z"/>
<path class="st0" d="M-138.2-73.7h3l3,13.9h0.4l3-13.9h3l-3.5,15.4h-5.5L-138.2-73.7z"/>
<path class="st0" d="M-117.7-73.7h9.8v2.8h-6.9v3.5h6.6v2.8h-6.6v3.6h7.1v2.8h-10V-73.7z"/>
<path class="st0" d="M-93.4-60.6c0.5,0,0.9-0.1,1.4-0.2c0.3-0.2,0.6-0.4,0.8-0.7c0.2-0.3,0.3-0.6,0.4-1s0.1-0.8,0.1-1.2v-0.4h2.9
	v0.4c0.1,1.5-0.4,3.1-1.4,4.2c-2.5,2-6,2-8.4-0.1c-1.1-1.3-1.7-3-1.6-4.7v-3.4c0-0.9,0.1-1.8,0.4-2.7c0.2-0.7,0.6-1.4,1.1-2
	c0.5-0.5,1.1-1,1.8-1.2c0.8-0.3,1.6-0.4,2.4-0.4s1.7,0.1,2.4,0.4c0.7,0.2,1.3,0.6,1.8,1.1s0.9,1.1,1.1,1.8c0.2,0.8,0.4,1.6,0.4,2.4
	v0.4h-2.9v-0.4c0-0.4,0-0.7-0.1-1.1s-0.2-0.7-0.4-1c-0.2-0.3-0.5-0.5-0.8-0.7c-0.4-0.2-0.9-0.3-1.3-0.3s-0.9,0.1-1.3,0.3
	c-0.3,0.2-0.7,0.4-0.9,0.8c-0.2,0.3-0.4,0.7-0.5,1.1s-0.2,0.9-0.2,1.3v3.9c0,0.5,0,0.9,0.1,1.4c0.1,0.4,0.3,0.8,0.5,1.1
	s0.5,0.6,0.9,0.7C-94.3-60.7-93.9-60.6-93.4-60.6z"/>
<path class="st0" d="M-76.3-58.3h-2.9v-15.4h2.9v6.3h0.6l4.1-6.3h3.3v0.1l-4.8,7.4v0.4l5,7.4v0.1h-3.4l-4.2-6.3h-0.6V-58.3z"/>
<path class="st0" d="M-52.2-61.6h-5.3l-0.7,3.3h-3l3.7-15.4h5.5l3.7,15.4h-3L-52.2-61.6z M-56.9-64.4h4l-1.8-7.9h-0.4L-56.9-64.4z"
	/>
<path class="st0" d="M-33.6-59.8h0.4v-13.9h2.9v15.4H-36l-1.8-13.9h-0.4v13.9h-2.9v-15.4h5.7L-33.6-59.8z"/>
<path class="st0" d="M46,0H2C0.9,0,0,0.9,0,2v44c0,1.1,0.9,2,2,2h44c1.1,0,2-0.9,2-2V2C48,0.9,47.1,0,46,0z"/>
<path class="st1" d="M35.9,35.1l-11-11.3l1.5-1.5c0.4,0.3,0.9,0.5,1.4,0.5c0.7,0,1.4-0.3,1.9-0.8l5.9-6c0.2-0.2,0.2-0.5,0-0.8
	c-0.2-0.2-0.5-0.2-0.7,0l0,0l-5.5,5.6L28.5,20l5.5-5.6c0.2-0.2,0.2-0.5,0-0.8c-0.2-0.2-0.5-0.2-0.7,0l0,0l-5.5,5.6l-0.7-0.8l5.5-5.6
	c0.2-0.2,0.2-0.5,0-0.8c-0.2-0.2-0.5-0.2-0.7,0l0,0L26,18c-0.3,0.3-0.5,0.7-0.7,1.1c-0.2,0.7-0.1,1.6,0.4,2.2L24.1,23L13.5,12.2
	c-0.2-0.2-0.5-0.2-0.7,0C12.1,13,11.8,14,12,15c0.3,2.4,2,5.2,5.1,8.4c1,1.3,2.4,2.2,4,2.6l-8.7,9c-0.2,0.2-0.2,0.5,0,0.8
	c0.1,0.1,0.2,0.2,0.4,0.2c0.1,0,0.3-0.1,0.4-0.2l11-11.2l11,11.3c0.1,0.1,0.2,0.2,0.4,0.2c0.1,0,0.3-0.1,0.4-0.2
	C36,35.6,36.1,35.3,35.9,35.1z M26.7,21.2c-0.5-0.5-0.7-1.2-0.3-1.8l2.1,2.1C27.8,21.8,27.1,21.7,26.7,21.2z M22.3,24.9L22.3,24.9
	c0,0-1.2,1-4.4-2.2c-5.2-5.3-5-8.2-4.6-9.3l10.1,10.4L22.3,24.9z"/>
<path class="st0" d="M45.8-188v44h-289v-44H45.8 M45.8-190h-289c-1.1,0-2,0.9-2,2v44c0,1.1,0.9,2,2,2h289c1.1,0,2-0.9,2-2v-44
	C47.8-189.1,46.9-190,45.8-190z"/>
<path class="st0" d="M-215.2-173.7h3l3,13.9h0.4l3-13.9h3l-3.4,15.4h-5.5L-215.2-173.7z"/>
<path class="st0" d="M-194.7-173.7h9.8v2.8h-6.9v3.5h6.5v2.8h-6.5v3.6h7.1v2.8h-10L-194.7-173.7z"/>
<path class="st0" d="M-171.5-166.1h6.6v7.8h-2.7v-1.7h-0.4c-0.2,0.6-0.5,1.1-1,1.4c-0.7,0.4-1.5,0.6-2.2,0.6s-1.4-0.1-2-0.4
	c-0.6-0.3-1.2-0.7-1.6-1.2c-0.5-0.6-0.9-1.2-1.1-1.9c-0.3-0.9-0.4-1.8-0.4-2.7v-3.6c0-0.9,0.1-1.8,0.4-2.6c0.3-0.7,0.7-1.4,1.2-1.9
	s1.1-0.9,1.8-1.2s1.5-0.4,2.3-0.4s1.6,0.1,2.4,0.4c0.7,0.3,1.3,0.7,1.8,1.2s0.9,1.1,1.1,1.8c0.3,0.7,0.4,1.4,0.4,2.2v0.3h-2.9v-0.3
	c0.1-0.8-0.2-1.5-0.7-2.1c-0.5-0.5-1.3-0.7-2-0.7c-0.8,0-1.5,0.3-2,0.8c-0.6,0.8-0.9,1.8-0.8,2.8v3.2c0,2.4,1,3.6,2.9,3.6
	c0.7,0.1,1.5-0.2,2-0.7s0.7-1.2,0.7-1.9h-3.8V-166.1z"/>
<path class="st0" d="M-156.9-167.7c-0.1-1.7,0.4-3.3,1.5-4.6c2.4-2.2,6-2.2,8.4,0c1.1,1.3,1.6,3,1.5,4.6v3.4
	c0.1,1.7-0.4,3.4-1.5,4.7c-2.4,2.1-6,2.1-8.4,0c-1.1-1.3-1.6-3-1.5-4.7V-167.7z M-151.2-160.6c0.5,0,0.9-0.1,1.3-0.2
	c0.3-0.2,0.6-0.4,0.9-0.7c0.2-0.3,0.4-0.7,0.5-1.1c0.1-0.5,0.1-0.9,0.1-1.4v-3.8c0-0.5,0-0.9-0.2-1.4c-0.1-0.4-0.2-0.8-0.5-1.1
	c-0.2-0.3-0.5-0.6-0.9-0.7c-0.4-0.2-0.8-0.3-1.3-0.3c-0.4,0-0.9,0.1-1.3,0.3c-0.3,0.2-0.6,0.4-0.9,0.7c-0.2,0.3-0.4,0.7-0.5,1.1
	c-0.1,0.4-0.2,0.9-0.2,1.4v3.8c0,0.5,0,0.9,0.1,1.4c0.1,0.4,0.2,0.8,0.5,1.1c0.2,0.3,0.5,0.5,0.9,0.7
	C-152.2-160.7-151.7-160.6-151.2-160.6z"/>
<path class="st0" d="M-138.2-173.7h3l3,13.9h0.4l3-13.9h3l-3.5,15.4h-5.5L-138.2-173.7z"/>
<path class="st0" d="M-117.7-173.7h9.8v2.8h-6.9v3.5h6.6v2.8h-6.6v3.6h7.1v2.8h-10V-173.7z"/>
<path class="st0" d="M-93.4-160.6c0.5,0,0.9-0.1,1.4-0.2c0.3-0.2,0.6-0.4,0.8-0.7c0.2-0.3,0.3-0.6,0.4-1s0.1-0.8,0.1-1.1v-0.4h2.9
	v0.4c0.1,1.5-0.4,3.1-1.4,4.2c-2.5,2-6,2-8.4-0.1c-1.1-1.3-1.7-3-1.6-4.7v-3.4c0-0.9,0.1-1.8,0.4-2.7c0.2-0.7,0.6-1.4,1.1-2
	c0.5-0.5,1.1-1,1.8-1.2c0.8-0.3,1.6-0.4,2.4-0.4s1.7,0.1,2.4,0.4c0.7,0.2,1.3,0.6,1.8,1.1s0.9,1.1,1.1,1.8c0.2,0.8,0.4,1.6,0.4,2.4
	v0.4h-2.9v-0.4c0-0.4,0-0.7-0.1-1.1c-0.1-0.4-0.2-0.7-0.4-1c-0.2-0.3-0.5-0.5-0.8-0.7c-0.4-0.2-0.9-0.3-1.3-0.3s-0.9,0.1-1.3,0.3
	c-0.3,0.2-0.7,0.4-0.9,0.8c-0.2,0.3-0.4,0.7-0.5,1.1c-0.1,0.4-0.2,0.9-0.2,1.3v3.9c0,0.5,0,0.9,0.1,1.4c0.1,0.4,0.3,0.8,0.5,1.1
	s0.5,0.6,0.9,0.7C-94.3-160.7-93.9-160.6-93.4-160.6z"/>
<path class="st0" d="M-76.3-158.3h-2.9v-15.4h2.9v6.3h0.6l4.1-6.3h3.3v0.1l-4.8,7.4v0.4l5,7.4v0.1h-3.4l-4.2-6.3h-0.6V-158.3z"/>
<path class="st0" d="M-52.2-161.6h-5.3l-0.7,3.3h-3l3.7-15.4h5.5l3.7,15.4h-3L-52.2-161.6z M-56.9-164.4h4l-1.8-7.9h-0.4
	L-56.9-164.4z"/>
<path class="st0" d="M-33.6-159.8h0.4v-13.9h2.9v15.4H-36l-1.8-13.9h-0.4v13.9h-2.9v-15.4h5.7L-33.6-159.8z"/>
<rect x="-0.2" y="-188" class="st0" width="2" height="44"/>
<path class="st0" d="M35.6-154.9l-11-11.3l1.5-1.5c0.4,0.3,0.9,0.5,1.4,0.5c0.7,0,1.4-0.3,1.9-0.8l5.9-6c0.2-0.2,0.2-0.5,0-0.8
	c-0.2-0.2-0.5-0.2-0.7,0l0,0l-5.5,5.6l-0.7-0.8l5.5-5.6c0.2-0.2,0.2-0.5,0-0.8c-0.2-0.2-0.5-0.2-0.7,0l0,0l-5.5,5.6l-0.7-0.8
	l5.5-5.6c0.2-0.2,0.2-0.5,0-0.8c-0.2-0.2-0.5-0.2-0.7,0l0,0l-5.9,6c-0.3,0.3-0.5,0.7-0.7,1.1c-0.2,0.7-0.1,1.6,0.4,2.2l-1.5,1.5
	L13.5-178c-0.2-0.2-0.5-0.2-0.7,0c-0.6,0.8-0.9,1.8-0.7,2.8c0.3,2.4,2,5.2,5.1,8.4c1,1.3,2.4,2.2,4,2.6l-8.7,9
	c-0.2,0.2-0.2,0.5,0,0.8c0.1,0.1,0.2,0.2,0.4,0.2c0.1,0,0.3-0.1,0.4-0.2l11-11.2l11,11.3c0.1,0.1,0.2,0.2,0.4,0.2
	c0.1,0,0.3-0.1,0.4-0.2C35.8-154.4,35.8-154.7,35.6-154.9z M26.4-168.8c-0.5-0.5-0.7-1.2-0.3-1.8l2.1,2.1
	C27.6-168.2,26.8-168.3,26.4-168.8z M22-165.1L22-165.1c0,0-1.2,1-4.4-2.2c-5.2-5.3-5-8.2-4.6-9.3l10.1,10.4L22-165.1z"/>
</svg>
