<svg xmlns="http://www.w3.org/2000/svg" viewBox="0 0 24.04 24"><defs><style>.a{fill:#fff;}</style></defs><title>Resurs 4</title><path class="a" d="M23.9,23.09l-11-11.3,1.5-1.53a2.38,2.38,0,0,0,1.38.48,2.7,2.7,0,0,0,1.88-.83l5.86-6a.53.53,0,0,0,0-.75.5.5,0,0,0-.7,0l0,0-5.5,5.63L16.56,8l5.5-5.63a.53.53,0,0,0,0-.75.51.51,0,0,0-.72,0l0,0L15.83,7.29l-.73-.75L20.59.91a.53.53,0,0,0,0-.75.5.5,0,0,0-.7,0l0,0L14,6.16a3.19,3.19,0,0,0-.68,1.15,2.43,2.43,0,0,0,.35,2.18L12.14,11,1.51.16a.52.52,0,0,0-.73,0A3.58,3.58,0,0,0,.05,3c.26,2.36,2,5.19,5.1,8.39a8.39,8.39,0,0,0,4,2.64L.46,23a.54.54,0,0,0,0,.75.52.52,0,0,0,.37.16.48.48,0,0,0,.36-.16l11-11.21,11,11.3a.52.52,0,0,0,.36.16.51.51,0,0,0,.37-.16A.53.53,0,0,0,23.9,23.09ZM14.7,9.16a1.47,1.47,0,0,1-.31-1.82l2.09,2.14A1.39,1.39,0,0,1,14.7,9.16ZM10.32,12.9h0s-1.25,1-4.41-2.23C.72,5.34.91,2.47,1.26,1.4L11.4,11.79Z"/></svg>