<svg xmlns="http://www.w3.org/2000/svg" viewBox="0 0 293 48"><defs><style>.a{fill:#9dc6c5;}.b{fill:#fff;}</style></defs><title>Resurs 3</title><path class="a" d="M291,0H2A2,2,0,0,0,0,2V46a2,2,0,0,0,2,2H291a2,2,0,0,0,2-2V2A2,2,0,0,0,291,0Z"/><path class="b" d="M30,16.31h3l3,13.93h.4l3-13.93h3L39,31.69H33.49Z"/><path class="b" d="M50.54,16.31h9.77v2.77H53.46v3.51H60v2.77H53.46v3.56h7.11v2.77h-10Z"/><path class="b" d="M73.74,23.91h6.62v7.78H77.71V30h-.39a3,3,0,0,1-1,1.44,3.6,3.6,0,0,1-2.25.58,4.9,4.9,0,0,1-2-.4,4.34,4.34,0,0,1-1.61-1.17,5.65,5.65,0,0,1-1.09-1.94A8.3,8.3,0,0,1,69,25.8V22.2a7.48,7.48,0,0,1,.43-2.65,5.51,5.51,0,0,1,1.19-1.95,5,5,0,0,1,1.82-1.19A6.5,6.5,0,0,1,74.75,16a6,6,0,0,1,2.37.43,5.13,5.13,0,0,1,2.88,3,6.25,6.25,0,0,1,.37,2.18v.27H77.45v-.27a2.87,2.87,0,0,0-.72-2.1,2.79,2.79,0,0,0-2-.71,2.69,2.69,0,0,0-2,.82,4,4,0,0,0-.8,2.83v3.25c0,2.37,1,3.55,2.92,3.56a2.63,2.63,0,0,0,2-.69,2.54,2.54,0,0,0,.68-1.86H73.74Z"/><path class="b" d="M88.32,22.29a6.59,6.59,0,0,1,1.51-4.64,6.13,6.13,0,0,1,8.37,0,6.59,6.59,0,0,1,1.51,4.64v3.42A6.6,6.6,0,0,1,98.2,30.4a6.28,6.28,0,0,1-8.37,0,6.6,6.6,0,0,1-1.51-4.69ZM94,29.36a3,3,0,0,0,1.32-.25,2.28,2.28,0,0,0,.86-.71,3,3,0,0,0,.47-1.1,7.47,7.47,0,0,0,.13-1.41V22.11a5.62,5.62,0,0,0-.16-1.36,3.18,3.18,0,0,0-.48-1.1,2.55,2.55,0,0,0-.86-.74,3.19,3.19,0,0,0-2.57,0,2.55,2.55,0,0,0-.86.74,3.18,3.18,0,0,0-.48,1.1,5.62,5.62,0,0,0-.16,1.36v3.78a7.47,7.47,0,0,0,.13,1.41,3,3,0,0,0,.47,1.1,2.28,2.28,0,0,0,.86.71A3,3,0,0,0,94,29.36Z"/><path class="b" d="M107.05,16.31h3l3,13.93h.4l3-13.93h3L116,31.69h-5.48Z"/><path class="b" d="M127.59,16.31h9.77v2.77h-6.85v3.51h6.58v2.77h-6.58v3.56h7.11v2.77h-10Z"/><path class="b" d="M151.85,29.36a3.28,3.28,0,0,0,1.38-.25,2.13,2.13,0,0,0,.84-.68,2.57,2.57,0,0,0,.4-1,5.54,5.54,0,0,0,.12-1.15v-.4h2.91v.4a5.8,5.8,0,0,1-1.45,4.23,6.49,6.49,0,0,1-8.4-.12,6.52,6.52,0,0,1-1.55-4.69V22.29a8.23,8.23,0,0,1,.4-2.65,5.42,5.42,0,0,1,1.15-2,4.9,4.9,0,0,1,1.81-1.23,6.29,6.29,0,0,1,2.39-.43,6.7,6.7,0,0,1,2.43.4,4.61,4.61,0,0,1,1.77,1.14,5,5,0,0,1,1.09,1.8,7.33,7.33,0,0,1,.36,2.37v.4h-2.91v-.4a4.46,4.46,0,0,0-.14-1.09,2.81,2.81,0,0,0-.44-1,2.43,2.43,0,0,0-.84-.72,2.84,2.84,0,0,0-1.32-.27,2.73,2.73,0,0,0-1.26.27,2.68,2.68,0,0,0-.89.75,3.18,3.18,0,0,0-.52,1.1A5.28,5.28,0,0,0,149,22V25.9a6.41,6.41,0,0,0,.15,1.38,3.35,3.35,0,0,0,.49,1.09,2.22,2.22,0,0,0,.87.71A3,3,0,0,0,151.85,29.36Z"/><path class="b" d="M168.92,31.69H166V16.31h2.91v6.31h.64l4.09-6.31h3.29v.13l-4.77,7.36v.4l5,7.36v.13h-3.42l-4.22-6.31h-.64Z"/><path class="b" d="M193,28.4h-5.3l-.7,3.29h-3l3.69-15.38h5.48l3.68,15.38h-3Zm-4.64-2.77h4l-1.78-7.87h-.4Z"/><path class="b" d="M211.69,30.24h.39V16.31H215V31.69h-5.7l-1.81-13.93h-.4V31.69h-2.91V16.31h5.7Z"/><rect class="b" x="246" y="2" width="1" height="44"/><path class="b" d="M280.85,35.09l-11-11.3,1.5-1.53a2.38,2.38,0,0,0,1.38.48,2.72,2.72,0,0,0,1.88-.83l5.86-6a.54.54,0,0,0,0-.75.5.5,0,0,0-.71,0l0,0-5.5,5.63-.73-.75,5.5-5.63a.54.54,0,0,0,0-.75.52.52,0,0,0-.72,0l0,0-5.49,5.63-.73-.75,5.49-5.63a.54.54,0,0,0,0-.75.5.5,0,0,0-.71,0l0,0-5.86,6a3.05,3.05,0,0,0-.68,1.15,2.43,2.43,0,0,0,.35,2.18L269.09,23,258.46,12.16a.52.52,0,0,0-.73,0A3.54,3.54,0,0,0,257,15c.26,2.36,2,5.19,5.1,8.39a8.39,8.39,0,0,0,4,2.64l-8.69,9a.54.54,0,0,0,0,.75.52.52,0,0,0,.37.16.48.48,0,0,0,.36-.16l10.95-11.21,11,11.3a.48.48,0,0,0,.36.16.52.52,0,0,0,.37-.16A.54.54,0,0,0,280.85,35.09Zm-9.2-13.93a1.44,1.44,0,0,1-.31-1.82l2.09,2.14A1.39,1.39,0,0,1,271.65,21.16Zm-4.38,3.74h0s-1.25,1-4.41-2.23c-5.19-5.33-5-8.2-4.65-9.27l10.14,10.39Z"/></svg>