<?xml version="1.0" encoding="UTF-8"?>
<svg width="16px" height="14px" viewBox="0 0 16 14" version="1.1" xmlns="http://www.w3.org/2000/svg" xmlns:xlink="http://www.w3.org/1999/xlink">
    <!-- Generator: Sketch 49.3 (51167) - http://www.bohemiancoding.com/sketch -->
    <title>Group 2</title>
    <desc>Created with Sketch.</desc>
    <defs></defs>
    <g id="Page-1" stroke="none" stroke-width="1" fill="none" fill-rule="evenodd">
        <g id="receptsida" transform="translate(-76.000000, -3553.000000)">
            <g id="Group-2" transform="translate(76.000000, 3552.000000)">
                <g>
                    <rect id="Rectangle-9-Copy" x="0" y="0" width="16" height="16"></rect>
                    <path d="M2,1.5 C1.1774686,1.5 0.5,2.1774686 0.5,3 L0.5,12 C0.5,12.822531 1.1774686,13.5 2,13.5 L5.5,13.5 C6.6833333,13.5 6.9357681,13.642799 7.6464844,14.353516 C7.84174933,14.5487002 8.15825067,14.5487002 8.3535156,14.353516 C9.0642319,13.642799 9.3166667,13.5 10.5,13.5 L14,13.5 C14.822531,13.5 15.5,12.822531 15.5,12 L15.5,3 C15.5,2.1774686 14.822531,1.5 14,1.5 L10.5,1.5 C9.3727484,1.5 8.676292,1.8258619 8,2.3964844 C7.323708,1.8258619 6.6272516,1.5 5.5,1.5 L2,1.5 Z M2,2.5 L5.5,2.5 C6.6833333,2.5 6.9357681,2.6427993 7.6464844,3.3535156 C7.84174933,3.54869976 8.15825067,3.54869976 8.3535156,3.3535156 C9.0642319,2.6427993 9.3166667,2.5 10.5,2.5 L14,2.5 C14.281469,2.5 14.5,2.7185314 14.5,3 L14.5,12 C14.5,12.281469 14.281469,12.5 14,12.5 L10.5,12.5 C9.3727484,12.5 8.676292,12.825862 8,13.396484 C7.323708,12.825862 6.6272516,12.5 5.5,12.5 L2,12.5 C1.7185314,12.5 1.5,12.281469 1.5,12 L1.5,3 C1.5,2.7185314 1.7185314,2.5 2,2.5 Z M6,3.5 C5.2158258,3.5 4.5853303,4.0229917 4.1660156,4.6679688 C3.7467009,5.3129457 3.5,6.1194552 3.5,6.9179688 C3.5,7.7164822 3.7710803,8.3864886 4.2382812,8.8359375 C4.5856875,9.1701434 5.0260878,9.3722515 5.5,9.4550781 L5.5,11.5 L6.5,11.5 L6.5,9.4550781 C6.9739505,9.372271 7.4143729,9.1702054 7.7617188,8.8359375 C8.2288385,8.3864053 8.5,7.7160605 8.5,6.9179688 C8.5,6.119877 8.2532603,5.3130309 7.8339844,4.6679688 C7.4147084,4.0229065 6.784325,3.5 6,3.5 Z M9.5,3.5 L9.5,7.5 L10.5,7.5 L10.5,3.5 L9.5,3.5 Z M11.5,3.5 L11.5,8 C11.5,8.2814686 11.281469,8.5 11,8.5 L10,8.5 L9.1757812,8.5 C9.0237812,8.849 8.8241719,9.1636406 8.5761719,9.4316406 C8.7111719,9.4716406 8.852,9.5 9,9.5 L9.5,9.5 L9.5,11.5 L10.5,11.5 L10.5,9.5 L11,9.5 C11.822531,9.5 12.5,8.8225314 12.5,8 L12.5,3.5 L11.5,3.5 Z M6,4.5 C6.320675,4.5 6.6916196,4.7444529 6.9960938,5.2128906 C7.3005677,5.6813284 7.5,6.3360605 7.5,6.9179688 C7.5,7.4998769 7.3249896,7.8682666 7.0683594,8.1152344 C6.8117291,8.3622022 6.4464668,8.5 6,8.5 C5.5533824,8.5 5.1881897,8.3620355 4.9316406,8.1152344 C4.6750915,7.8684333 4.5,7.5004552 4.5,6.9179688 C4.5,6.3354823 4.6994709,5.6811637 5.0039062,5.2128906 C5.3083417,4.7446176 5.6791742,4.5 6,4.5 Z" id="Shape" fill="#FFFFFF" fill-rule="nonzero"></path>
                </g>
            </g>
        </g>
    </g>
</svg>